<svg width="28" height="28" viewBox="0 0 28 28" fill="none" xmlns="http://www.w3.org/2000/svg">
<path d="M22 0H6C2.68629 0 0 2.68629 0 6V22C0 25.3137 2.68629 28 6 28H22C25.3137 28 28 25.3137 28 22V6C28 2.68629 25.3137 0 22 0Z" fill="#ECEDFD"/>
<path d="M18.6664 20H19.34C19.9875 20 20.3112 20 20.4896 19.865C20.6451 19.7474 20.7413 19.5677 20.7529 19.3731C20.7662 19.1497 20.5867 18.8804 20.2275 18.3417L18.2206 15.3313C17.9239 14.8862 17.7755 14.6636 17.5885 14.586C17.425 14.5182 17.2412 14.5182 17.0777 14.586C16.8907 14.6636 16.7423 14.8862 16.4456 15.3313L15.9494 16.0755M18.6664 20L13.5434 12.6001C13.2488 12.1745 13.1015 11.9618 12.9175 11.887C12.7565 11.8215 12.5764 11.8215 12.4154 11.887C12.2314 11.9618 12.0841 12.1745 11.7894 12.6001L7.82523 18.3262C7.44988 18.8684 7.26221 19.1394 7.27289 19.3649C7.2822 19.5612 7.37768 19.7435 7.53382 19.8629C7.7131 20 8.04281 20 8.70224 20H18.6664ZM19.9998 10C19.9998 11.1046 19.1043 12 17.9998 12C16.8952 12 15.9998 11.1046 15.9998 10C15.9998 8.89543 16.8952 8 17.9998 8C19.1043 8 19.9998 8.89543 19.9998 10Z" stroke="#161616" stroke-opacity="0.1" stroke-linecap="round" stroke-linejoin="round"/>
</svg>
